<svg height="151.713" viewBox="0 0 205 151.713" width="205" xmlns="http://www.w3.org/2000/svg"><path d="M58.317 64.786v18.108h8.392c1.925 0 3.335-.425 4.23-1.274s1.489-2.531 1.784-5.045h1.257v15.594h-1.257c-.023-1.789-.255-3.103-.697-3.941-.441-.838-1.054-1.467-1.834-1.886-.781-.419-1.942-.629-3.482-.629h-8.392v14.473c0 2.333.147 3.873.442 4.621.226.566.702 1.053 1.427 1.461a6.432 6.432 0 0 0 3.125.816h1.665v1.257H45.204v-1.257h1.631c1.902 0 3.283-.555 4.145-1.665.544-.725.816-2.469.816-5.232V70.425c0-2.332-.148-3.873-.442-4.62-.227-.566-.692-1.053-1.393-1.461a6.308 6.308 0 0 0-3.125-.815h-1.631v-1.257h34.279l.442 10.125h-1.189c-.589-2.151-1.274-3.731-2.055-4.739s-1.745-1.738-2.887-2.191c-1.144-.453-2.917-.68-5.317-.68H58.317zm50.797-3.568v15.934h-1.257c-.408-3.058-1.138-5.492-2.191-7.304s-2.554-3.25-4.502-4.314c-1.948-1.065-3.964-1.597-6.047-1.597-2.356 0-4.304.719-5.844 2.157-1.54 1.439-2.31 3.074-2.31 4.909 0 1.405.487 2.684 1.46 3.839 1.404 1.699 4.746 3.964 10.023 6.795 4.303 2.31 7.241 4.082 8.816 5.317s2.786 2.69 3.635 4.366 1.274 3.431 1.274 5.266c0 3.488-1.354 6.495-4.06 9.02-2.707 2.526-6.19 3.788-10.447 3.788-1.337 0-2.594-.101-3.771-.306-.702-.114-2.157-.526-4.366-1.24-2.208-.714-3.607-1.071-4.195-1.071-.566 0-1.013.17-1.342.51-.328.339-.572 1.042-.73 2.106h-1.257V93.596h1.257c.589 3.307 1.381 5.782 2.379 7.423.996 1.642 2.519 3.007 4.569 4.094 2.049 1.087 4.298 1.63 6.744 1.63 2.831 0 5.067-.747 6.709-2.242s2.463-3.262 2.463-5.3c0-1.132-.312-2.276-.935-3.431s-1.591-2.231-2.905-3.228c-.883-.679-3.296-2.123-7.236-4.331-3.941-2.208-6.743-3.969-8.408-5.283-1.664-1.313-2.928-2.763-3.788-4.348-.861-1.585-1.291-3.329-1.291-5.232 0-3.307 1.268-6.155 3.806-8.545 2.537-2.389 5.764-3.584 9.682-3.584 2.446 0 5.04.601 7.781 1.801 1.268.566 2.163.849 2.684.849.588 0 1.069-.175 1.443-.526s.674-1.058.9-2.124h1.257z" fill="#320068"/><path d="M138.934 47.201s-7.002 20.97 9.991 16.598c1.839-.468 8.814-2.217 11.073-1.58 0 0-13.519 2.456-15.249 10.875-1.227 5.995 4.42 12.792 5.506 19.77 1.367 8.786-1.712 17.302-3.637 18.78 0 0 4.791-10.569.074-21.886-2.036-4.886-6.174-10.281-9.28-18.767-3.06-8.376-2.542-18.586 1.522-23.79" fill="#466315"/><path d="M138.894 84.847l2.331 5.555h-15.831l7.427-17.248c-.494-1.895-.698-3.979-.677-6.032l-13.682 32.012c-1.405 3.329-2.684 5.538-3.839 6.625-.567.543-1.812.985-3.737 1.325v1.257h14.507v-1.257c-2.22-.159-3.664-.504-4.333-1.036-.667-.532-1.002-1.149-1.002-1.852 0-.883.385-2.219 1.155-4.009l3.125-7.27h17.837l2.308 5.488c-.192-1.555-.51-3.141-1.01-4.681-1.033-3.194-2.794-6.088-4.579-8.877" fill="#466315"/><path d="M146.449 108.341c-.324.993-.7 1.857-1.107 2.568 0 0 .234-.977.454-2.568a42.57 42.57 0 0 0 .405-5.106c.052-3.028-.228-6.582-1.327-9.966-2.36-7.284-8.047-12.674-10.337-19.498-1.146-3.42-1.143-7.64-.508-11.058.334-1.801.844-3.381 1.455-4.499 0 0-.154 1.155-.184 3.005-.045 2.908.218 7.54 1.874 12.147 2.432 6.764 8.538 13.055 9.866 20.499 1.043 5.861.545 10.981-.591 14.476m-1.327-55.189a3.697 3.697 0 1 1 1.886 7.151 3.698 3.698 0 0 1-1.886-7.151m-12.547 2.336c-9.299-2.067-8.471-10.949-8.471-10.949 7.715 1.075 8.471 10.949 8.471 10.949m-8.758-24.005c-8.727-3.799-6.219-12.361-6.219-12.361 7.367 2.53 6.219 12.361 6.219 12.361m8.207 7.368c6.213 2.794 4.438 11.26 4.438 11.26-7.299-4.003-4.438-11.26-4.438-11.26M135.923 0c6.431 4.401 2.705 13.575 2.705 13.575C131.225 7.584 135.923 0 135.923 0m-.395 15.15c5.743 5.257.769 13.813.769 13.813-6.488-6.969-.769-13.813-.769-13.813m6.568 11.845c4.079 6.635-3.059 13.494-3.059 13.494-4.319-8.479 3.059-13.494 3.059-13.494m8.194-8.616c4.074 6.635-3.06 13.492-3.06 13.492-4.323-8.481 3.06-13.492 3.06-13.492m13.998 5.85C161.051 15.27 169 11.213 169 11.213c3.222 7.092-4.712 13.016-4.712 13.016m2.761 11.97c-3.237-8.955 4.71-13.012 4.71-13.012 3.221 7.088-4.71 13.012-4.71 13.012m9.383 9.246c.55 7.768-8.95 10.556-8.95 10.556.089-9.523 8.95-10.556 8.95-10.556m.169 17.164c-5.67 5.341-13.835-.257-13.835-.257 7.431-5.951 13.835.257 13.835.257m17.378-19.115c-4.488 6.367-13.606 2.523-13.606 2.523 6.087-7.323 13.606-2.523 13.606-2.523m-3.975-10.175c-.95 7.735-10.804 8.649-10.804 8.649 1.91-9.327 10.804-8.649 10.804-8.649" fill="#320068"/><path d="M151.196 34.719c.605-9.498 9.511-10.053 9.511-10.053.126 7.791-9.511 10.053-9.511 10.053" fill="#466315"/><path d="M164.154 34.909c-1.47 7.654-11.363 7.896-11.363 7.896 2.537-9.179 11.363-7.896 11.363-7.896" fill="#320068"/><path d="M129.657 24.751c6.455 4.358 2.79 13.555 2.79 13.555-7.439-5.942-2.79-13.555-2.79-13.555m-.181 18.616c-9.427-1.298-9.333-10.218-9.333-10.218 7.776.442 9.333 10.218 9.333 10.218m-2.185-21.937c-8.166-4.894-4.564-13.065-4.564-13.065 6.976 3.47 4.564 13.065 4.564 13.065" fill="#466315"/><path d="M127.757 2.154c6.429 4.402 2.707 13.575 2.707 13.575-7.402-5.992-2.707-13.575-2.707-13.575m15.899 17.855c-4.32-8.481 3.059-13.493 3.059-13.493 4.079 6.633-3.059 13.493-3.059 13.493m14.726-14.053c4.621 6.275-1.916 13.706-1.916 13.706-5.018-8.098 1.916-13.706 1.916-13.706m16.146 29.889c2.259 7.457-6.385 12.279-6.385 12.279-2.026-9.305 6.385-12.279 6.385-12.279m11.194 17.557c-3.657 6.874-13.189 4.199-13.189 4.199 5.125-8.025 13.189-4.199 13.189-4.199m-11.056-19.009c.515-9.509 9.409-10.145 9.409-10.145.205 7.782-9.409 10.145-9.409 10.145m-27.028 1.349c4.074 6.642-3.064 13.493-3.064 13.493-4.318-8.482 3.064-13.493 3.064-13.493m18.68 15.842c-.184 6.882-8.775 8.514-8.775 8.514.897-8.365 8.775-8.514 8.775-8.514m-5.979-5.73c-.184 6.882-8.774 8.515-8.774 8.515.898-8.366 8.774-8.515 8.774-8.515" fill="#466315"/><path d="M4.48 122.005v6.185h2.866c.657 0 1.139-.145 1.445-.435s.509-.864.609-1.723h.429v5.327H9.4c-.009-.611-.087-1.06-.238-1.347-.151-.285-.36-.5-.627-.643s-.664-.215-1.19-.215H4.48v4.943c0 .797.05 1.323.151 1.578.078.193.24.36.487.5.34.185.696.278 1.068.278h.568v.429H0v-.429h.557c.65 0 1.122-.19 1.417-.569.185-.248.278-.843.278-1.787v-10.165c0-.797-.051-1.323-.151-1.578-.077-.193-.237-.36-.476-.499a2.153 2.153 0 0 0-1.068-.279H0v-.429h11.709l.151 3.458h-.406c-.201-.734-.435-1.274-.702-1.618a2.302 2.302 0 0 0-.986-.749c-.39-.154-.996-.232-1.816-.232H4.48zm19.692-.429v-.429h5.57v.429h-.592c-.619 0-1.095.259-1.427.778-.162.24-.243.796-.243 1.671v6.382c0 1.578-.157 2.803-.47 3.673-.314.87-.928 1.617-1.845 2.24s-2.164.934-3.743.934c-1.717 0-3.021-.298-3.91-.893a4.851 4.851 0 0 1-1.892-2.402c-.248-.688-.371-1.98-.371-3.876v-6.151c0-.967-.134-1.601-.4-1.903-.267-.301-.699-.453-1.294-.453h-.592v-.429h6.8v.429h-.603c-.65 0-1.115.205-1.393.615-.193.279-.29.859-.29 1.74v6.859c0 .611.056 1.31.168 2.1.112.789.315 1.404.609 1.845.295.441.717.805 1.271 1.091.553.286 1.232.429 2.036.429 1.029 0 1.949-.225 2.762-.673.812-.449 1.367-1.024 1.665-1.724s.447-1.885.447-3.557v-6.371c0-.982-.108-1.597-.325-1.845-.301-.341-.75-.511-1.346-.511h-.592zm19.576-.43l.174 3.69h-.441c-.085-.649-.201-1.113-.348-1.392-.24-.45-.559-.78-.958-.993-.398-.212-.922-.319-1.572-.319h-2.217v12.022c0 .966.105 1.57.314 1.809.295.326.747.488 1.358.488h.545v.429h-6.672v-.429h.557c.665 0 1.137-.201 1.415-.604.17-.246.256-.812.256-1.693v-12.022h-1.892c-.735 0-1.257.054-1.567.163-.402.146-.746.429-1.033.847-.286.417-.456.982-.51 1.693h-.441l.185-3.69h12.847zm12.103.43v-.429h5.57v.429h-.592c-.619 0-1.095.259-1.427.778-.163.24-.244.796-.244 1.671v6.382c0 1.578-.157 2.803-.47 3.673-.314.87-.928 1.617-1.845 2.24s-2.165.934-3.743.934c-1.717 0-3.021-.298-3.91-.893a4.846 4.846 0 0 1-1.892-2.402c-.248-.688-.372-1.98-.372-3.876v-6.151c0-.967-.133-1.601-.4-1.903-.267-.301-.699-.453-1.294-.453h-.592v-.429h6.8v.429h-.603c-.65 0-1.115.205-1.393.615-.194.279-.29.859-.29 1.74v6.859c0 .611.056 1.31.168 2.1.112.789.315 1.404.609 1.845.293.441.717.805 1.27 1.091s1.232.429 2.037.429c1.029 0 1.95-.225 2.762-.673.813-.449 1.367-1.024 1.665-1.724s.447-1.885.447-3.557v-6.371c0-.982-.109-1.597-.325-1.845-.302-.341-.751-.511-1.346-.511h-.59zm21.886 15.306h-4.201l-5.326-7.357c-.395.015-.716.023-.963.023a9.45 9.45 0 0 1-.685-.024v4.572c0 .991.108 1.606.325 1.845.294.34.735.511 1.323.511h.615v.429h-6.742v-.429h.592c.666 0 1.141-.217 1.427-.65.162-.24.244-.808.244-1.706v-10.165c0-.991-.109-1.606-.325-1.845-.302-.341-.751-.511-1.346-.511h-.592v-.429h5.733c1.671 0 2.903.122 3.696.366.793.243 1.466.692 2.019 1.346s.83 1.432.83 2.338c0 .968-.315 1.807-.946 2.518-.631.713-1.607 1.215-2.929 1.509l3.249 4.514c.743 1.036 1.381 1.725 1.915 2.066.533.34 1.23.557 2.089.65v.429zm-11.175-8.089c.147 0 .274.002.382.007.109.004.197.005.267.005 1.501 0 2.632-.325 3.394-.975.761-.649 1.143-1.478 1.143-2.483 0-.982-.307-1.781-.922-2.396-.616-.615-1.43-.922-2.443-.922-.448 0-1.056.073-1.822.221v6.543zm15.932-6.788v6.22h3.458c.897 0 1.497-.135 1.799-.406.402-.356.627-.982.673-1.88h.429v5.478h-.429c-.109-.766-.217-1.257-.325-1.473-.139-.271-.368-.484-.685-.639-.317-.154-.804-.232-1.462-.232h-3.458v5.187c0 .697.031 1.12.093 1.271.062.15.17.271.325.36s.448.133.882.133h2.669c.889 0 1.535-.062 1.938-.185.402-.123.789-.367 1.16-.731.48-.479.971-1.204 1.475-2.17h.464l-1.358 3.945H78.015v-.429h.557c.372 0 .723-.089 1.056-.267a.973.973 0 0 0 .505-.556c.089-.248.134-.755.134-1.52v-10.223c0-.999-.101-1.613-.301-1.845-.278-.309-.743-.464-1.393-.464h-.557v-.429h12.127l.174 3.447h-.453c-.162-.828-.342-1.396-.539-1.706-.198-.309-.489-.545-.876-.708-.31-.117-.855-.174-1.636-.174h-4.319zm26.389-1.218v5.442h-.43c-.138-1.044-.388-1.877-.748-2.495a3.899 3.899 0 0 0-1.537-1.474 4.251 4.251 0 0 0-2.066-.545c-.805 0-1.47.245-1.996.737s-.789 1.051-.789 1.677c0 .48.167.917.5 1.311.48.581 1.62 1.354 3.423 2.321 1.47.789 2.473 1.395 3.011 1.816.538.422.952.919 1.241 1.492.29.572.436 1.172.436 1.798 0 1.191-.462 2.218-1.387 3.081s-2.114 1.294-3.568 1.294c-.458 0-.886-.035-1.288-.104-.24-.038-.737-.179-1.491-.423s-1.232-.366-1.433-.366a.614.614 0 0 0-.459.174c-.112.116-.195.356-.249.719h-.43v-5.396h.43c.201 1.13.472 1.975.811 2.536.34.561.861 1.027 1.561 1.398.7.372 1.468.558 2.304.558.967 0 1.731-.256 2.292-.766.561-.511.841-1.114.841-1.81a2.46 2.46 0 0 0-.319-1.172c-.214-.395-.544-.763-.993-1.103-.302-.232-1.126-.725-2.471-1.479-1.346-.754-2.304-1.355-2.873-1.804-.568-.449-.999-.944-1.293-1.486a3.679 3.679 0 0 1-.441-1.786c0-1.13.433-2.103 1.299-2.918.867-.816 1.969-1.224 3.308-1.224.835 0 1.721.205 2.657.614.433.194.738.29.916.29.201 0 .365-.06.494-.18.127-.119.229-.361.307-.725h.43zm16.628 0l.36 5.35h-.36c-.48-1.602-1.165-2.754-2.054-3.458-.889-.703-1.958-1.056-3.203-1.056-1.044 0-1.988.265-2.831.795s-1.507 1.374-1.99 2.535c-.484 1.161-.725 2.603-.725 4.329 0 1.423.228 2.657.684 3.701s1.143 1.845 2.06 2.402 1.963.835 3.139.835c1.021 0 1.922-.218 2.704-.656.781-.437 1.64-1.306 2.576-2.605l.359.232c-.789 1.4-1.71 2.425-2.761 3.075-1.053.65-2.302.975-3.749.975-2.607 0-4.627-.967-6.058-2.901-1.068-1.439-1.601-3.133-1.601-5.083 0-1.57.353-3.013 1.057-4.328.703-1.315 1.673-2.334 2.907-3.058a7.856 7.856 0 0 1 4.043-1.085c1.138 0 2.259.279 3.366.835.325.171.557.256.696.256.209 0 .39-.074.545-.221.201-.208.344-.499.429-.87h.407zm6.429 7.658h7.31v-4.502c0-.804-.05-1.334-.15-1.59-.078-.193-.24-.359-.488-.499a2.137 2.137 0 0 0-1.055-.278h-.558v-.429h6.731v.429h-.557c-.372 0-.724.089-1.056.267-.248.124-.416.312-.505.563s-.134.764-.134 1.537v10.154c0 .797.05 1.323.15 1.578.078.193.237.36.476.5.34.185.697.278 1.068.278h.557v.429h-6.731v-.429h.558c.642 0 1.109-.19 1.404-.569.193-.248.29-.843.29-1.787v-4.793h-7.31v4.793c0 .797.05 1.323.151 1.578.077.193.24.36.487.5.333.185.685.278 1.056.278h.569v.429h-6.742v-.429h.557c.65 0 1.121-.19 1.415-.569.185-.248.279-.843.279-1.787v-10.154c0-.804-.051-1.334-.151-1.59-.077-.193-.236-.359-.476-.499a2.204 2.204 0 0 0-1.067-.278h-.557v-.429h6.742v.429h-.569c-.371 0-.724.089-1.056.267-.24.124-.406.312-.499.563s-.139.764-.139 1.537zm20.969-7.658c2.042 0 3.812.775 5.309 2.327 1.496 1.551 2.246 3.486 2.246 5.807 0 2.391-.755 4.375-2.263 5.953-1.509 1.579-3.335 2.368-5.478 2.368-2.166 0-3.986-.769-5.459-2.309-1.474-1.539-2.211-3.532-2.211-5.976 0-2.499.851-4.538 2.553-6.115 1.478-1.371 3.245-2.055 5.303-2.055m-.22.847c-1.408 0-2.538.523-3.388 1.567-1.06 1.299-1.59 3.202-1.59 5.709 0 2.568.548 4.545 1.648 5.93.843 1.052 1.957 1.578 3.342 1.578 1.478 0 2.698-.577 3.661-1.73.963-1.152 1.445-2.97 1.445-5.454 0-2.692-.53-4.7-1.59-6.022-.852-1.052-2.028-1.578-3.528-1.578m17.383-.847c2.042 0 3.811.775 5.309 2.327 1.496 1.551 2.246 3.486 2.246 5.807 0 2.391-.755 4.375-2.263 5.953-1.509 1.579-3.335 2.368-5.477 2.368-2.166 0-3.986-.769-5.459-2.309-1.474-1.539-2.211-3.532-2.211-5.976 0-2.499.851-4.538 2.553-6.115 1.476-1.371 3.244-2.055 5.302-2.055m-.221.847c-1.408 0-2.538.523-3.388 1.567-1.06 1.299-1.59 3.202-1.59 5.709 0 2.568.548 4.545 1.648 5.93.843 1.052 1.957 1.578 3.342 1.578 1.478 0 2.698-.577 3.661-1.73.963-1.152 1.445-2.97 1.445-5.454 0-2.692-.53-4.7-1.59-6.022-.851-1.052-2.027-1.578-3.528-1.578m22.315 10.896l.382.081-1.346 4.271h-12.184v-.429h.592c.665 0 1.141-.217 1.427-.65.163-.246.244-.819.244-1.717v-10.154c0-.983-.108-1.598-.325-1.845-.302-.341-.751-.511-1.346-.511h-.592v-.429h7.125v.429c-.835-.007-1.421.07-1.758.232-.336.162-.566.367-.69.614-.124.248-.186.839-.186 1.776v9.887c0 .642.062 1.083.186 1.323a.832.832 0 0 0 .429.36c.193.077.797.116 1.81.116h1.149c1.207 0 2.054-.089 2.542-.267.487-.177.932-.493 1.334-.946s.805-1.166 1.207-2.141m11.79-11.743v5.442h-.429c-.139-1.044-.389-1.877-.749-2.495a3.899 3.899 0 0 0-1.537-1.474 4.251 4.251 0 0 0-2.066-.545c-.805 0-1.47.245-1.996.737s-.789 1.051-.789 1.677c0 .48.167.917.5 1.311.479.581 1.62 1.354 3.423 2.321 1.47.789 2.474 1.395 3.011 1.816.538.422.952.919 1.241 1.492.29.572.435 1.172.435 1.798 0 1.191-.462 2.218-1.386 3.081-.925.863-2.114 1.294-3.569 1.294-.456 0-.885-.035-1.288-.104-.24-.038-.737-.179-1.492-.423-.753-.244-1.232-.366-1.433-.366a.611.611 0 0 0-.458.174c-.112.116-.195.356-.249.719h-.43v-5.396h.43c.201 1.13.472 1.975.812 2.536s.86 1.027 1.561 1.398c.7.372 1.468.558 2.304.558.967 0 1.731-.256 2.292-.766.561-.511.841-1.114.841-1.81a2.46 2.46 0 0 0-.319-1.172c-.214-.395-.544-.763-.993-1.103-.301-.232-1.126-.725-2.471-1.479-1.346-.754-2.304-1.355-2.872-1.804-.569-.449-1-.944-1.294-1.486a3.679 3.679 0 0 1-.441-1.786c0-1.13.434-2.103 1.3-2.918.866-.816 1.969-1.224 3.307-1.224.835 0 1.721.205 2.657.614.433.194.739.29.917.29.201 0 .365-.06.493-.18.128-.119.23-.361.307-.725h.43z" fill="#320068"/><path d="M0 145.656h59.231v1.342H0zm146.546 0h57.405v1.342h-57.405zm-77.333 2.373h-3.989l-.699 1.626c-.172.4-.258.699-.258.897 0 .157.074.295.224.414.149.118.472.196.969.231v.282h-3.244v-.282c.431-.075.709-.174.836-.295.259-.244.544-.737.858-1.481l3.624-8.479h.266l3.586 8.569c.289.689.55 1.136.786 1.341.235.205.563.321.984.345v.282h-4.065v-.282c.411-.019.688-.088.832-.204a.528.528 0 0 0 .217-.425c0-.223-.101-.575-.304-1.057zm-.213-.563l-1.747-4.163-1.793 4.163zm13.716 1.163l.251.052-.881 2.797h-7.978v-.281h.387c.436 0 .747-.142.935-.425.107-.162.16-.537.16-1.125V143c0-.643-.071-1.046-.213-1.208-.198-.223-.491-.334-.882-.334h-.387v-.281h4.664v.281c-.547-.005-.93.046-1.151.152-.22.107-.37.241-.451.402-.081.163-.121.55-.121 1.163v6.473c0 .421.04.709.121.866.061.107.155.185.281.236s.522.076 1.185.076h.752c.79 0 1.345-.058 1.664-.175.318-.117.61-.323.874-.619.264-.298.527-.765.79-1.403m9.971 0l.251.052-.881 2.797H84.08v-.281h.387c.436 0 .747-.142.934-.425.107-.162.16-.537.16-1.125V143c0-.643-.071-1.046-.213-1.208-.197-.223-.491-.334-.881-.334h-.387v-.281h4.664v.281c-.546-.005-.93.046-1.151.152-.22.107-.371.241-.452.402-.081.163-.121.55-.121 1.163v6.473c0 .421.04.709.121.866a.542.542 0 0 0 .281.236c.126.051.522.076 1.185.076h.752c.79 0 1.345-.058 1.664-.175s.611-.323.874-.619c.264-.298.527-.765.79-1.403m5.853 2.567v.282h-4.414v-.282h.365c.425 0 .735-.123.927-.372.122-.162.182-.551.182-1.169v-6.656c0-.522-.033-.866-.099-1.033a.69.69 0 0 0-.311-.328 1.447 1.447 0 0 0-.699-.182h-.365v-.281h4.414v.281h-.372c-.421 0-.727.124-.92.372-.126.162-.19.553-.19 1.17v6.656c0 .521.033.865.099 1.033.051.126.157.235.319.326.218.121.448.182.692.182h.372zm7.965-3.167h-3.988l-.699 1.626c-.173.4-.258.699-.258.897 0 .157.074.295.224.414.149.118.472.196.968.231v.282h-3.244v-.282c.43-.075.709-.174.836-.295.258-.244.544-.737.858-1.481l3.624-8.479h.266l3.586 8.569c.289.689.55 1.136.786 1.341s.563.321.984.345v.282h-4.064v-.282c.41-.019.687-.088.831-.204a.53.53 0 0 0 .217-.425c0-.223-.101-.575-.304-1.057zm-.212-.563l-1.747-4.163-1.794 4.163zm4.592-6.291h2.796l6.298 7.727v-5.941c0-.633-.071-1.029-.213-1.185-.187-.213-.484-.319-.889-.319h-.358v-.282h3.586v.282h-.364c-.436 0-.745.132-.927.395-.112.162-.167.532-.167 1.109v8.683h-.273l-6.792-8.297v6.344c0 .633.068 1.028.205 1.185.193.213.489.318.889.318h.365v.282h-3.586v-.282h.357c.441 0 .752-.131.935-.394.111-.162.167-.532.167-1.11v-7.164c-.299-.35-.525-.58-.68-.691-.155-.112-.382-.215-.681-.312-.146-.045-.37-.068-.668-.068zm21.275-.235l.235 3.503h-.235c-.314-1.048-.763-1.803-1.345-2.264-.583-.461-1.282-.691-2.097-.691-.683 0-1.302.173-1.853.52-.552.348-.986.901-1.302 1.661-.317.76-.475 1.704-.475 2.834 0 .932.149 1.739.448 2.424.299.683.748 1.208 1.348 1.573.6.364 1.285.547 2.055.547.669 0 1.259-.143 1.77-.429.512-.286 1.074-.854 1.687-1.706l.236.153c-.517.917-1.119 1.587-1.808 2.013-.689.425-1.507.638-2.454.638-1.708 0-3.029-.633-3.966-1.9-.699-.942-1.049-2.051-1.049-3.327 0-1.029.231-1.973.692-2.834s1.095-1.528 1.903-2.002a5.148 5.148 0 0 1 2.648-.711c.745 0 1.479.183 2.203.548.214.111.365.167.456.167a.498.498 0 0 0 .357-.145c.132-.135.226-.326.281-.57h.265zm4.729.798v4.073h2.264c.588 0 .98-.089 1.179-.266.262-.233.409-.643.44-1.231h.281v3.586h-.281c-.071-.501-.142-.824-.213-.966a.946.946 0 0 0-.448-.417c-.207-.101-.526-.152-.957-.152h-2.264v3.396c0 .456.02.733.062.832.04.099.111.177.212.234.102.059.293.088.578.088h1.747c.583 0 1.005-.04 1.269-.121.264-.082.517-.242.76-.48.314-.314.636-.787.965-1.42h.304l-.889 2.583h-7.939v-.282h.364c.243 0 .473-.057.691-.174a.64.64 0 0 0 .331-.365c.058-.162.088-.493.088-.994v-6.693c0-.653-.066-1.055-.198-1.208-.183-.203-.486-.304-.912-.304h-.364v-.282h7.939l.114 2.257h-.296c-.106-.542-.224-.914-.353-1.116a1.208 1.208 0 0 0-.573-.464c-.203-.076-.561-.114-1.071-.114z" fill="#466315"/></svg>